<?xml version="1.0" encoding="utf-8"?>
<!-- Generator: Adobe Illustrator 24.1.3, SVG Export Plug-In . SVG Version: 6.00 Build 0)  -->
<svg version="1.1" id="Слой_1" xmlns="http://www.w3.org/2000/svg" xmlns:xlink="http://www.w3.org/1999/xlink" x="0px" y="0px"
	 viewBox="0 0 120 120" style="enable-background:new 0 0 120 120;" xml:space="preserve">
<style type="text/css">
	.st0{fill:#5B6DB2;}
</style>
<g>
	<g>
		<path d="M16.3,51.9c-0.3,0-0.6-0.1-0.8-0.3c-0.2-0.2-0.3-0.5-0.3-0.8V40c0-0.3,0.1-0.6,0.3-0.8C15.7,39,16,39,16.3,39
			c0.3,0,0.5,0.1,0.7,0.2c0.2,0.1,0.3,0.3,0.5,0.6l4.4,8.2h-0.6l4.4-8.2c0.1-0.3,0.3-0.5,0.5-0.6C26.4,39,26.7,39,27,39
			c0.3,0,0.6,0.1,0.8,0.3c0.2,0.2,0.3,0.5,0.3,0.8v10.8c0,0.3-0.1,0.6-0.3,0.8c-0.2,0.2-0.4,0.3-0.8,0.3c-0.3,0-0.6-0.1-0.8-0.3
			c-0.2-0.2-0.3-0.5-0.3-0.8v-8.3h0.4l-3.8,6.9c-0.1,0.2-0.2,0.4-0.4,0.5C22,50,21.9,50,21.6,50c-0.2,0-0.4-0.1-0.6-0.2
			c-0.1-0.1-0.3-0.2-0.4-0.4l-3.8-6.9h0.4v8.4c0,0.3-0.1,0.6-0.3,0.8C16.9,51.8,16.6,51.9,16.3,51.9z"/>
		<path d="M31.9,51.9c-0.3,0-0.6-0.1-0.8-0.3s-0.3-0.5-0.3-0.8V40.1c0-0.4,0.1-0.7,0.3-0.9c0.2-0.2,0.4-0.3,0.7-0.3
			c0.3,0,0.5,0.1,0.6,0.2c0.1,0.1,0.3,0.3,0.5,0.5l6.9,8.9h-0.5V40c0-0.3,0.1-0.6,0.3-0.8s0.5-0.3,0.8-0.3c0.3,0,0.6,0.1,0.8,0.3
			c0.2,0.2,0.3,0.5,0.3,0.8v10.8c0,0.3-0.1,0.6-0.3,0.8c-0.2,0.2-0.4,0.3-0.7,0.3c-0.3,0-0.5-0.1-0.7-0.2c-0.2-0.1-0.3-0.3-0.5-0.5
			l-6.9-8.9H33v8.5c0,0.4-0.1,0.6-0.3,0.8C32.5,51.8,32.2,51.9,31.9,51.9z"/>
		<path d="M48.7,52c-0.5,0-1.1,0-1.6-0.1c-0.5-0.1-1-0.2-1.5-0.4c-0.5-0.2-0.9-0.4-1.3-0.6c-0.2-0.1-0.4-0.3-0.4-0.5
			c-0.1-0.2-0.1-0.4-0.1-0.6c0-0.2,0.1-0.4,0.2-0.5s0.3-0.2,0.5-0.3c0.2,0,0.4,0,0.6,0.2c0.5,0.3,1.1,0.5,1.7,0.7S48,50,48.7,50
			c0.9,0,1.6-0.2,2.1-0.5c0.4-0.3,0.6-0.7,0.6-1.2c0-0.4-0.2-0.7-0.5-1s-0.8-0.4-1.6-0.6l-2-0.4c-1.1-0.2-2-0.6-2.5-1.2
			c-0.6-0.6-0.8-1.3-0.8-2.3c0-0.6,0.1-1.1,0.4-1.6c0.2-0.5,0.6-0.9,1-1.2c0.4-0.3,1-0.6,1.6-0.8s1.3-0.3,2-0.3
			c0.7,0,1.4,0.1,2.1,0.3c0.6,0.2,1.2,0.4,1.7,0.8c0.2,0.1,0.3,0.3,0.4,0.5s0.1,0.4,0,0.6c0,0.2-0.1,0.3-0.3,0.5
			c-0.1,0.1-0.3,0.2-0.5,0.2c-0.2,0-0.4,0-0.7-0.2c-0.4-0.3-0.9-0.4-1.4-0.5c-0.5-0.1-0.9-0.2-1.5-0.2c-0.6,0-1,0.1-1.4,0.2
			s-0.7,0.4-0.9,0.7c-0.2,0.3-0.3,0.6-0.3,1c0,0.4,0.1,0.8,0.4,1c0.3,0.3,0.8,0.5,1.5,0.6l2,0.4c1.2,0.3,2.1,0.6,2.7,1.2
			c0.6,0.5,0.9,1.3,0.9,2.2c0,0.6-0.1,1.1-0.4,1.6c-0.2,0.5-0.6,0.9-1,1.2s-1,0.6-1.6,0.8C50.1,51.9,49.4,52,48.7,52z"/>
		<path d="M66.6,52c-1.4,0-2.6-0.3-3.6-0.8c-1-0.5-1.7-1.3-2.2-2.3c-0.5-1-0.8-2.1-0.8-3.5c0-1,0.1-1.9,0.4-2.7
			c0.3-0.8,0.7-1.5,1.3-2.1c0.6-0.6,1.2-1,2-1.3c0.8-0.3,1.7-0.5,2.7-0.5c0.7,0,1.3,0.1,2,0.2c0.7,0.2,1.3,0.4,1.9,0.8
			c0.2,0.1,0.3,0.3,0.4,0.5c0.1,0.2,0.1,0.4,0,0.6c0,0.2-0.1,0.4-0.3,0.5c-0.1,0.1-0.3,0.2-0.5,0.3c-0.2,0-0.4,0-0.7-0.1
			c-0.5-0.3-0.9-0.5-1.4-0.6c-0.5-0.1-1-0.2-1.6-0.2c-0.9,0-1.6,0.2-2.3,0.5c-0.6,0.4-1.1,0.9-1.4,1.5c-0.3,0.7-0.5,1.5-0.5,2.5
			c0,1.5,0.4,2.6,1.1,3.4c0.7,0.8,1.8,1.2,3.2,1.2c0.5,0,1,0,1.5-0.1s1-0.2,1.4-0.4l-0.5,1v-3.8h-2c-0.3,0-0.5-0.1-0.7-0.2
			s-0.2-0.4-0.2-0.6c0-0.3,0.1-0.5,0.2-0.6s0.4-0.2,0.7-0.2h3c0.3,0,0.5,0.1,0.7,0.2c0.2,0.2,0.2,0.4,0.2,0.7v4.4
			c0,0.3-0.1,0.5-0.2,0.7c-0.1,0.2-0.3,0.3-0.5,0.4c-0.5,0.2-1.1,0.4-1.8,0.5C68,51.9,67.3,52,66.6,52z"/>
		<path d="M76.4,52c-0.6,0-1.2-0.1-1.7-0.4s-0.9-0.6-1.2-1c-0.3-0.4-0.4-0.9-0.4-1.4c0-0.6,0.2-1.2,0.5-1.5s0.9-0.7,1.6-0.8
			s1.8-0.3,3-0.3h0.9v1.3h-0.9c-0.7,0-1.3,0-1.8,0.1c-0.4,0.1-0.8,0.2-0.9,0.4c-0.2,0.2-0.3,0.4-0.3,0.7c0,0.4,0.1,0.7,0.4,1
			c0.3,0.3,0.7,0.4,1.2,0.4c0.4,0,0.7-0.1,1.1-0.3s0.5-0.4,0.7-0.8c0.2-0.3,0.3-0.7,0.3-1.1v-2.1c0-0.6-0.1-1-0.4-1.3
			c-0.3-0.3-0.7-0.4-1.3-0.4c-0.3,0-0.7,0-1.1,0.1c-0.4,0.1-0.8,0.2-1.3,0.4c-0.2,0.1-0.4,0.1-0.6,0.1c-0.2,0-0.3-0.1-0.4-0.3
			c-0.1-0.1-0.1-0.3-0.1-0.5c0-0.2,0-0.4,0.1-0.5s0.3-0.3,0.5-0.4c0.6-0.2,1.1-0.4,1.6-0.5s1-0.1,1.4-0.1c0.9,0,1.6,0.1,2.1,0.4
			c0.6,0.3,1,0.7,1.3,1.2c0.3,0.5,0.4,1.2,0.4,2.1v4.3c0,0.4-0.1,0.7-0.3,0.9c-0.2,0.2-0.4,0.3-0.8,0.3s-0.6-0.1-0.8-0.3
			c-0.2-0.2-0.3-0.5-0.3-0.9v-0.9h0.1c-0.1,0.4-0.2,0.8-0.5,1.1c-0.2,0.3-0.6,0.5-0.9,0.7C77.4,51.9,76.9,52,76.4,52z"/>
		<path d="M84.5,51.9c-0.4,0-0.6-0.1-0.8-0.3c-0.2-0.2-0.3-0.5-0.3-0.9V44c0-0.4,0.1-0.7,0.3-0.8c0.2-0.2,0.5-0.3,0.8-0.3
			c0.3,0,0.6,0.1,0.8,0.3c0.2,0.2,0.3,0.5,0.3,0.8v1.3l-0.2-0.5c0.2-0.6,0.6-1.1,1.1-1.4s1.1-0.5,1.8-0.5c0.7,0,1.3,0.2,1.7,0.5
			s0.8,0.9,1,1.5h-0.3c0.2-0.6,0.6-1.1,1.2-1.5c0.6-0.4,1.2-0.5,1.9-0.5c0.7,0,1.2,0.1,1.7,0.4c0.4,0.3,0.8,0.7,1,1.2
			c0.2,0.5,0.3,1.2,0.3,2v4.4c0,0.4-0.1,0.7-0.3,0.9c-0.2,0.2-0.5,0.3-0.8,0.3s-0.6-0.1-0.8-0.3c-0.2-0.2-0.3-0.5-0.3-0.9v-4.3
			c0-0.7-0.1-1.2-0.3-1.5s-0.6-0.5-1.1-0.5c-0.6,0-1,0.2-1.4,0.6s-0.5,1-0.5,1.7v3.9c0,0.4-0.1,0.7-0.3,0.9
			c-0.2,0.2-0.5,0.3-0.8,0.3s-0.6-0.1-0.8-0.3c-0.2-0.2-0.3-0.5-0.3-0.9v-4.3c0-0.7-0.1-1.2-0.3-1.5c-0.2-0.3-0.6-0.5-1.1-0.5
			c-0.6,0-1,0.2-1.4,0.6s-0.5,1-0.5,1.7v3.9C85.7,51.5,85.3,51.9,84.5,51.9z"/>
		<path d="M103.5,52c-1,0-1.9-0.2-2.6-0.6c-0.7-0.4-1.3-0.9-1.7-1.6c-0.4-0.7-0.6-1.5-0.6-2.4c0-0.9,0.2-1.7,0.6-2.4
			s0.9-1.2,1.6-1.6c0.7-0.4,1.4-0.6,2.3-0.6c0.6,0,1.2,0.1,1.7,0.3c0.5,0.2,0.9,0.5,1.3,0.9c0.4,0.4,0.6,0.8,0.8,1.4
			c0.2,0.5,0.3,1.2,0.3,1.8c0,0.2-0.1,0.4-0.2,0.5c-0.2,0.1-0.4,0.2-0.6,0.2h-5.8v-1.3h5.1l-0.3,0.3c0-0.6-0.1-1-0.2-1.4
			s-0.4-0.7-0.7-0.9c-0.3-0.2-0.7-0.3-1.1-0.3c-0.5,0-0.9,0.1-1.3,0.4c-0.4,0.2-0.6,0.6-0.8,1c-0.2,0.4-0.3,0.9-0.3,1.5v0.1
			c0,1,0.2,1.7,0.7,2.2c0.5,0.5,1.1,0.7,2,0.7c0.3,0,0.7,0,1.1-0.1s0.8-0.2,1.1-0.4c0.3-0.1,0.5-0.2,0.7-0.2c0.2,0,0.3,0.1,0.5,0.2
			c0.1,0.1,0.2,0.3,0.2,0.4c0,0.2,0,0.4-0.1,0.5c-0.1,0.2-0.2,0.3-0.5,0.5c-0.4,0.3-0.9,0.5-1.4,0.6C104.5,51.9,104,52,103.5,52z"/>
		<path class="st0" d="M9.1,73.5c-0.3,0-0.6-0.1-0.8-0.3c-0.2-0.2-0.3-0.5-0.3-0.8V61.6c0-0.3,0.1-0.6,0.3-0.8
			c0.2-0.2,0.5-0.3,0.8-0.3c0.3,0,0.5,0.1,0.7,0.2c0.2,0.1,0.3,0.3,0.5,0.6l4.4,8.2h-0.6l4.4-8.2c0.1-0.3,0.3-0.5,0.5-0.6
			c0.2-0.1,0.4-0.2,0.7-0.2c0.3,0,0.6,0.1,0.8,0.3c0.2,0.2,0.3,0.5,0.3,0.8v10.8c0,0.3-0.1,0.6-0.3,0.8c-0.2,0.2-0.4,0.3-0.8,0.3
			c-0.3,0-0.6-0.1-0.8-0.3c-0.2-0.2-0.3-0.5-0.3-0.8v-8.3h0.4L15.4,71c-0.1,0.2-0.2,0.4-0.4,0.5c-0.1,0.1-0.3,0.1-0.5,0.1
			c-0.2,0-0.4-0.1-0.6-0.2c-0.1-0.1-0.3-0.2-0.4-0.4l-3.8-6.9h0.4v8.4c0,0.3-0.1,0.6-0.3,0.8C9.7,73.4,9.5,73.5,9.1,73.5z"/>
		<path class="st0" d="M27.6,73.6c-0.9,0-1.7-0.2-2.4-0.6c-0.7-0.4-1.2-0.9-1.6-1.6c-0.4-0.7-0.6-1.5-0.6-2.4c0-0.7,0.1-1.3,0.3-1.9
			c0.2-0.6,0.5-1,0.9-1.4c0.4-0.4,0.9-0.7,1.4-0.9c0.6-0.2,1.2-0.3,1.9-0.3c0.9,0,1.7,0.2,2.4,0.6c0.7,0.4,1.2,0.9,1.6,1.6
			c0.4,0.7,0.6,1.5,0.6,2.4c0,0.7-0.1,1.3-0.3,1.9c-0.2,0.6-0.5,1-0.9,1.4S30,73,29.4,73.2C28.9,73.5,28.3,73.6,27.6,73.6z
			 M27.6,71.9c0.4,0,0.8-0.1,1.2-0.3c0.3-0.2,0.6-0.5,0.8-1c0.2-0.4,0.3-1,0.3-1.6c0-1-0.2-1.7-0.6-2.2c-0.4-0.5-0.9-0.7-1.6-0.7
			c-0.4,0-0.8,0.1-1.2,0.3c-0.3,0.2-0.6,0.5-0.8,1s-0.3,1-0.3,1.6c0,0.9,0.2,1.7,0.6,2.2C26.4,71.6,26.9,71.9,27.6,71.9z"/>
		<path class="st0" d="M35.3,73.5c-0.4,0-0.6-0.1-0.8-0.3c-0.2-0.2-0.3-0.5-0.3-0.9v-6.8c0-0.4,0.1-0.7,0.3-0.9
			c0.2-0.2,0.5-0.3,0.8-0.3c0.4,0,0.6,0.1,0.8,0.3c0.2,0.2,0.3,0.5,0.3,0.9V68h3.9v-2.4c0-0.4,0.1-0.7,0.3-0.9
			c0.2-0.2,0.5-0.3,0.8-0.3c0.4,0,0.6,0.1,0.8,0.3c0.2,0.2,0.3,0.5,0.3,0.9v6.8c0,0.4-0.1,0.7-0.3,0.9c-0.2,0.2-0.5,0.3-0.8,0.3
			c-0.4,0-0.6-0.1-0.8-0.3c-0.2-0.2-0.3-0.5-0.3-0.9v-2.6h-3.9v2.6c0,0.4-0.1,0.7-0.3,0.9C36,73.4,35.7,73.5,35.3,73.5z"/>
		<path class="st0" d="M46.2,73.5c-0.2,0-0.4,0-0.6-0.1c-0.2-0.1-0.3-0.2-0.4-0.4s-0.1-0.4-0.1-0.7v-6.8c0-0.3,0.1-0.6,0.3-0.8
			c0.2-0.2,0.4-0.3,0.8-0.3c0.3,0,0.6,0.1,0.7,0.3c0.2,0.2,0.3,0.5,0.3,0.8v5.6h-0.5l4.4-5.9c0.1-0.2,0.3-0.3,0.5-0.5
			c0.2-0.2,0.5-0.2,0.8-0.2c0.2,0,0.4,0,0.6,0.1s0.3,0.2,0.3,0.4c0.1,0.2,0.1,0.4,0.1,0.7v6.8c0,0.3-0.1,0.6-0.3,0.8
			c-0.2,0.2-0.4,0.3-0.7,0.3c-0.3,0-0.6-0.1-0.8-0.3c-0.2-0.2-0.3-0.5-0.3-0.8v-5.6h0.5l-4.5,5.9c-0.1,0.2-0.3,0.3-0.5,0.5
			C46.8,73.4,46.5,73.5,46.2,73.5z"/>
		<path class="st0" d="M59,73.5c-0.4,0-0.6-0.1-0.8-0.3c-0.2-0.2-0.3-0.5-0.3-0.9v-6h-2.2c-0.6,0-1-0.3-1-0.9c0-0.3,0.1-0.5,0.3-0.6
			c0.2-0.2,0.4-0.2,0.7-0.2h6.6c0.6,0,1,0.3,1,0.9c0,0.3-0.1,0.5-0.3,0.7s-0.4,0.2-0.7,0.2h-2.2v6c0,0.4-0.1,0.7-0.3,0.9
			C59.6,73.4,59.3,73.5,59,73.5z"/>
		<path class="st0" d="M68.5,73.6c-0.9,0-1.7-0.2-2.4-0.6s-1.2-0.9-1.6-1.6C64.2,70.7,64,69.9,64,69c0-0.7,0.1-1.3,0.3-1.9
			c0.2-0.6,0.5-1,0.9-1.4c0.4-0.4,0.9-0.7,1.4-0.9c0.6-0.2,1.2-0.3,1.9-0.3c0.9,0,1.7,0.2,2.4,0.6s1.2,0.9,1.6,1.6
			C72.8,67.2,73,68,73,69c0,0.7-0.1,1.3-0.3,1.9c-0.2,0.6-0.5,1-0.9,1.4c-0.4,0.4-0.9,0.7-1.4,0.9C69.8,73.5,69.2,73.6,68.5,73.6z
			 M68.5,71.9c0.4,0,0.8-0.1,1.2-0.3c0.3-0.2,0.6-0.5,0.8-1c0.2-0.4,0.3-1,0.3-1.6c0-1-0.2-1.7-0.6-2.2s-0.9-0.7-1.6-0.7
			c-0.4,0-0.8,0.1-1.2,0.3s-0.6,0.5-0.8,1c-0.2,0.4-0.3,1-0.3,1.6c0,0.9,0.2,1.7,0.6,2.2C67.3,71.6,67.9,71.9,68.5,71.9z"/>
		<path class="st0" d="M76.2,76.8c-0.4,0-0.6-0.1-0.8-0.3c-0.2-0.2-0.3-0.5-0.3-0.8V65.6c0-0.4,0.1-0.7,0.3-0.8
			c0.2-0.2,0.5-0.3,0.8-0.3c0.4,0,0.6,0.1,0.8,0.3c0.2,0.2,0.3,0.5,0.3,0.8V67l-0.2-0.5c0.2-0.6,0.5-1.1,1.1-1.5
			c0.6-0.4,1.2-0.6,2-0.6c0.8,0,1.4,0.2,2,0.6s1,0.9,1.4,1.6s0.5,1.5,0.5,2.4c0,0.9-0.2,1.7-0.5,2.4c-0.3,0.7-0.8,1.2-1.3,1.6
			s-1.3,0.6-2,0.6c-0.7,0-1.4-0.2-1.9-0.5c-0.6-0.4-0.9-0.8-1.1-1.4h0.2v4c0,0.4-0.1,0.7-0.3,0.8C76.9,76.7,76.6,76.8,76.2,76.8z
			 M79.6,71.9c0.4,0,0.8-0.1,1.2-0.3c0.3-0.2,0.6-0.5,0.8-1c0.2-0.4,0.3-1,0.3-1.6c0-1-0.2-1.7-0.6-2.2s-0.9-0.7-1.6-0.7
			c-0.4,0-0.8,0.1-1.2,0.3s-0.6,0.5-0.8,1c-0.2,0.4-0.3,1-0.3,1.6c0,0.9,0.2,1.7,0.6,2.2C78.4,71.6,78.9,71.9,79.6,71.9z"/>
		<path class="st0" d="M87.2,73.5c-0.2,0-0.4,0-0.6-0.1c-0.2-0.1-0.3-0.2-0.4-0.4s-0.1-0.4-0.1-0.7v-6.8c0-0.3,0.1-0.6,0.3-0.8
			c0.2-0.2,0.4-0.3,0.8-0.3c0.3,0,0.6,0.1,0.7,0.3c0.2,0.2,0.3,0.5,0.3,0.8v5.6h-0.5l4.4-5.9c0.1-0.2,0.3-0.3,0.5-0.5
			c0.2-0.2,0.5-0.2,0.8-0.2c0.2,0,0.4,0,0.6,0.1s0.3,0.2,0.3,0.4s0.1,0.4,0.1,0.7v6.8c0,0.3-0.1,0.6-0.3,0.8
			c-0.2,0.2-0.4,0.3-0.7,0.3c-0.3,0-0.6-0.1-0.8-0.3c-0.2-0.2-0.3-0.5-0.3-0.8v-5.6h0.5l-4.5,5.9c-0.1,0.2-0.3,0.3-0.5,0.5
			C87.8,73.4,87.6,73.5,87.2,73.5z"/>
		<path class="st0" d="M98.2,73.5c-0.4,0-0.6-0.1-0.8-0.3C97.1,73,97,72.7,97,72.4v-6.8c0-0.4,0.1-0.7,0.3-0.9
			c0.2-0.2,0.5-0.3,0.8-0.3s0.6,0.1,0.8,0.3c0.2,0.2,0.3,0.5,0.3,0.9V68h3.9v-2.4c0-0.4,0.1-0.7,0.3-0.9c0.2-0.2,0.5-0.3,0.8-0.3
			c0.4,0,0.6,0.1,0.8,0.3c0.2,0.2,0.3,0.5,0.3,0.9v6.8c0,0.4-0.1,0.7-0.3,0.9c-0.2,0.2-0.5,0.3-0.8,0.3c-0.4,0-0.6-0.1-0.8-0.3
			c-0.2-0.2-0.3-0.5-0.3-0.9v-2.6h-3.9v2.6c0,0.4-0.1,0.7-0.3,0.9C98.8,73.4,98.5,73.5,98.2,73.5z"/>
		<path class="st0" d="M109.1,73.5c-0.4,0-0.6-0.1-0.8-0.3s-0.3-0.5-0.3-0.9v-6.5c0-0.4,0.1-0.7,0.3-0.9c0.2-0.2,0.5-0.3,0.9-0.3
			h4.6c0.3,0,0.6,0.1,0.7,0.2c0.2,0.1,0.2,0.4,0.2,0.7c0,0.3-0.1,0.5-0.2,0.7c-0.2,0.2-0.4,0.2-0.7,0.2h-3.6v6
			C110.2,73.1,109.9,73.5,109.1,73.5z"/>
	</g>
</g>
</svg>
